<?xml version="1.0" encoding="utf-8"?>
<!-- Generator: Adobe Illustrator 16.0.0, SVG Export Plug-In . SVG Version: 6.00 Build 0)  -->
<!DOCTYPE svg PUBLIC "-//W3C//DTD SVG 1.1//EN" "http://www.w3.org/Graphics/SVG/1.1/DTD/svg11.dtd">
<svg version="1.1" id="Layer_1" xmlns="http://www.w3.org/2000/svg" xmlns:xlink="http://www.w3.org/1999/xlink" x="0px" y="0px"
	 width="91px" height="31px" viewBox="0 0 91 31" enable-background="new 0 0 91 31" xml:space="preserve">
<g>
	<g>
		<path fill="#F05B25" d="M14.0703,10.0234c4.7715,0,8.6709-2.5708,9.002-8.1724L20.0449,1.105
			c-0.5391,3.9409-2.8643,5.3511-4.6465,5.3511h-0.8291c0.4541-0.6631,0.7031-1.5347,0.7031-2.4487
			c0-2.2397-1.7002-3.9419-3.9404-3.9419c-2.1191,0-3.8574,1.5356-3.8574,4.2754C7.4746,8.1157,10.792,10.0234,14.0703,10.0234z"/>
		<path fill="#F05B25" d="M57.7344,13.854c-1.7041-1.5312-7.5088-2.2437-11.5684-2.2437c-4.0615,0-9.8633,0.7124-11.5703,2.2437
			c-1.8438,1.6567-2.082,3.8667-2.082,5.605c0,1.7422,0.2383,3.9512,2.082,5.6094c1.707,1.5293,7.5088,2.2402,11.5703,2.2402
			c4.0596,0,9.8643-0.7109,11.5684-2.2402c1.8438-1.6582,2.082-3.8672,2.082-5.6094C59.8164,17.7207,59.5781,15.5107,57.7344,13.854
			z M50.2031,21.75c-0.4033,0.332-1.71,0.8906-4.0371,0.8906c-2.3291,0-3.8506-0.416-3.8506-0.416
			c-0.0273-0.0283-0.4521-0.7832-0.4521-2.7656c0-1.9805,0.2363-2.2637,0.2617-2.2881c0.4053-0.3311,1.7119-0.8916,4.041-0.8916
			c2.3271,0,3.8477,0.417,3.8477,0.417c0.0273,0.0264,0.4541,0.7822,0.4541,2.7627C50.4678,21.4414,50.2305,21.7246,50.2031,21.75z"
			/>
		<path fill="#F05B25" d="M27.8359,21.5957c0-1.4883,0-9.5835,0-9.5835H16.5801v2.5796l2.3301,1.0312v2.9004v0.6221
			c0,0-0.7686,1.5693-4.125,2.1875c-1.791,0.332-3.6289-0.3818-3.6289-2.7158c0-1.457,0-6.605,0-6.605H0.0469v2.5796L2.376,15.623
			c0,0,0,1.4961,0,3.2012c0,4.2412,0.9014,8.4531,6.8604,8.4531c2.5176,0,5.5283-1.2666,9.8721-3.7246
			c0.2793,1.7607,1.7158,3.8076,5.1865,3.8076c3.8066,0,7.043-1.9639,7.043-1.9639l-0.7988-3.1074
			C30.5391,22.2891,27.8359,23.0117,27.8359,21.5957z"/>
		<path fill="#F05B25" d="M72.0879,21.3438c-0.001,0.0039-0.001,0.0068-0.001,0.0068
			C72.0801,21.3711,72.0869,21.3477,72.0879,21.3438z"/>
		<path fill="#F05B25" d="M87.8203,22.418V12.0122H64.4668v2.5356l3.1494,1.0532c-0.5479,2.3032-1.9453,4.9907-2.5928,6.1343
			c-0.248,0.4365-0.7334,0.5557-1.1895,0.6826L61.0791,23.04v7.9053h3.9346l1.5938-4.0371h18.46l1.5957,4.0371h4.2725V22.418
			H87.8203z M78.9355,22.418h-7.2002l-1.3545,0.1348v-0.1621l1.7061-1.04c0.001-0.0068,0.0029-0.0088,0.001-0.0068
			c0.041-0.1494,0.7158-2.7129,0.8486-4.8408h5.999V22.418z"/>
	</g>
</g>
</svg>
